<?xml version="1.0" encoding="UTF-8"?>
<svg version="1.1" xmlns="http://www.w3.org/2000/svg" width="512" height="512">
<path d="M0 0 C1.25336151 -0.0087616 2.50672302 -0.01752319 3.79806519 -0.02655029 C7.20766755 -0.04468023 10.61573586 -0.04058274 14.02524948 -0.02465487 C17.61068371 -0.01190325 21.19605705 -0.02376146 24.78149414 -0.03158569 C30.80008567 -0.04065557 36.81836938 -0.02876486 42.83691406 -0.00488281 C49.77290932 0.02232374 56.70816945 0.01350765 63.64414692 -0.01401484 C69.62328746 -0.03678142 75.60220805 -0.03986939 81.58137798 -0.02682149 C85.14194964 -0.01906814 88.70217696 -0.01787049 92.26272583 -0.03450394 C96.23533195 -0.05176955 100.20712957 -0.02777008 104.1796875 0 C105.9255867 -0.01518173 105.9255867 -0.01518173 107.70675659 -0.03067017 C115.14975914 0.06532876 120.89638892 1.36663273 127.08984375 5.64697266 C133.29029831 12.02138988 134.39349249 19.46576565 134.35054016 28.09689331 C134.35436571 28.92140177 134.35819126 29.74591023 134.36213273 30.59540379 C134.37240986 33.34426729 134.36848066 36.09291984 134.36450195 38.84179688 C134.36885136 40.81835116 134.37403528 42.79490376 134.37998962 44.77145386 C134.39336645 50.13099588 134.39395973 55.49046733 134.39142632 60.85002279 C134.39035569 65.32809297 134.39524238 69.80614892 134.40003175 74.28421605 C134.41112246 84.85094655 134.41156683 95.4176415 134.40551758 105.984375 C134.39947781 116.87650631 134.41178993 127.76850844 134.43308765 138.66061771 C134.45071475 148.02049071 134.45670324 157.38032263 134.4534499 166.74021161 C134.45163863 172.32677099 134.45425779 177.91323824 134.46816444 183.49978256 C134.48075609 188.75457828 134.47878593 194.00917291 134.46575356 199.26396561 C134.46339112 201.18881041 134.46611048 203.11366942 134.47437668 205.03849792 C134.48487417 207.6735917 134.47671959 210.30801448 134.46406555 212.94308472 C134.47143984 213.69806586 134.47881412 214.45304701 134.48641187 215.23090637 C134.40563152 223.27076366 132.22637987 230.29924097 126.69921875 236.20947266 C121.52158058 240.83415918 115.54249402 241.76522058 108.84161377 241.78741455 C107.80439178 241.79312469 106.7671698 241.79883484 105.69851685 241.80471802 C104.57114105 241.80583588 103.44376526 241.80695374 102.28222656 241.80810547 C101.08651031 241.81307037 99.89079407 241.81803528 98.65884399 241.82315063 C95.38590709 241.83523486 92.11300585 241.8427111 88.8400507 241.84716129 C86.7918095 241.85009932 84.7435738 241.8542055 82.69533539 241.85866547 C76.27688984 241.87232937 69.85845699 241.88200123 63.43999791 241.88586736 C56.04941127 241.89034443 48.65900991 241.90788056 41.26847959 241.93686795 C35.54344092 241.95853766 29.81845418 241.96857446 24.09337497 241.96990848 C20.67980481 241.9709528 17.26640909 241.9767805 13.85288239 241.99472809 C10.04012606 242.01182565 6.22781842 242.00989887 2.41503906 242.00341797 C0.73612076 242.01724014 0.73612076 242.01724014 -0.97671509 242.03134155 C-10.09128481 241.98292918 -17.67609819 240.61238806 -24.47265625 234.25634766 C-29.89189268 228.18915904 -30.05934792 221.16527107 -30.05059814 213.43756104 C-30.05356927 212.61476143 -30.05654039 211.79196182 -30.05960155 210.94422889 C-30.06826794 208.18920866 -30.06979505 205.43423199 -30.07128906 202.67919922 C-30.07591868 200.70294095 -30.08094354 198.72668358 -30.08633423 196.75042725 C-30.09944613 191.38252197 -30.1059008 186.01462919 -30.11034489 180.6467104 C-30.11327749 177.29189448 -30.11738266 173.93708196 -30.12184906 170.58226776 C-30.13552065 160.08241551 -30.14518903 149.58257104 -30.14905095 139.0827105 C-30.15353135 126.96843288 -30.1710799 114.85426811 -30.20005155 102.74002481 C-30.22167738 93.37170565 -30.23175571 84.00341823 -30.23309207 74.63507438 C-30.23413942 69.04176986 -30.24003256 63.44857148 -30.25791168 57.85529327 C-30.27440794 52.59232798 -30.27654025 47.32954843 -30.26777267 42.06656647 C-30.26700314 40.13849388 -30.27133391 38.21041123 -30.28123093 36.28236389 C-30.29398216 33.64279603 -30.28805653 31.00388291 -30.27764893 28.36431885 C-30.28570533 27.60797346 -30.29376173 26.85162808 -30.30206227 26.07236314 C-30.24164975 19.48566695 -28.60574595 13.63121053 -25.34765625 7.89697266 C-17.83932205 0.96620263 -9.87769862 -0.08589303 0 0 Z M44.08984375 79.64697266 C43.67152971 83.35697984 43.67152971 83.35697984 44.08984375 86.64697266 C43.20296875 86.70884766 42.31609375 86.77072266 41.40234375 86.83447266 C36.53789345 88.02763971 34.56287232 90.86083657 31.47265625 94.60791016 C29.32886162 99.3194136 29.6169187 103.90788326 29.65234375 109.02197266 C29.63236328 110.03775391 29.61238281 111.05353516 29.59179688 112.10009766 C29.59595331 118.50101522 30.12309956 122.53838696 34.08984375 127.64697266 C39.01559139 132.12492506 43.1527495 132.15871819 49.46484375 131.89697266 C50.29628906 131.87892578 51.12773437 131.86087891 51.984375 131.84228516 C54.02003449 131.79548839 56.05509465 131.72375564 58.08984375 131.64697266 C58.08984375 136.92697266 58.08984375 142.20697266 58.08984375 147.64697266 C51.65484375 148.14197266 51.65484375 148.14197266 45.08984375 148.64697266 C45.08984375 146.66697266 45.08984375 144.68697266 45.08984375 142.64697266 C43.37234831 139.88671213 42.09798858 138.13478467 39.15234375 136.70947266 C36.34168862 136.62430129 34.56653271 137.34345215 32.08984375 138.64697266 C29.23905428 142.92315685 29.47973436 146.62882293 30.08984375 151.64697266 C31.8500545 156.9476073 35.17985077 160.08968464 40.08984375 162.64697266 C41.40984375 162.64697266 42.72984375 162.64697266 44.08984375 162.64697266 C44.21359375 164.28666016 44.21359375 164.28666016 44.33984375 165.95947266 C44.77995857 169.58109321 44.77995857 169.58109321 46.71484375 171.64697266 C50.17367628 173.1033232 52.50282746 172.56003135 56.08984375 171.64697266 C58.13435394 170.60323244 58.13435394 170.60323244 59.08984375 168.64697266 C59.34033011 165.52148248 59.34033011 165.52148248 59.08984375 162.64697266 C59.95609375 162.58509766 60.82234375 162.52322266 61.71484375 162.45947266 C65.97568778 161.43371391 68.00872004 159.72809636 71.08984375 156.64697266 C73.81255384 151.14321694 73.45763336 145.72654696 73.46484375 139.70947266 C73.50158203 138.10168945 73.50158203 138.10168945 73.5390625 136.46142578 C73.56230542 130.20520777 73.35490833 126.35856025 69.08984375 121.64697266 C63.33097163 117.20784206 59.49500226 116.51292107 52.33984375 116.58447266 C49.24609375 116.61541016 49.24609375 116.61541016 46.08984375 116.64697266 C45.59484375 109.22197266 45.59484375 109.22197266 45.08984375 101.64697266 C49.37984375 101.64697266 53.66984375 101.64697266 58.08984375 101.64697266 C58.74984375 103.29697266 59.40984375 104.94697266 60.08984375 106.64697266 C62.02151773 108.99511 62.02151773 108.99511 65.46484375 109.02197266 C69.05848406 108.92510677 69.05848406 108.92510677 71.52734375 107.08447266 C73.71304635 103.67477659 73.63988941 101.63480366 73.08984375 97.64697266 C70.58788826 92.83551979 67.45493701 89.73891372 63.08984375 86.64697266 C61.76984375 86.64697266 60.44984375 86.64697266 59.08984375 86.64697266 C59.19296875 85.59509766 59.29609375 84.54322266 59.40234375 83.45947266 C59.42076218 79.54993346 59.42076218 79.54993346 56.90234375 76.70947266 C54.30742866 74.53396976 54.30742866 74.53396976 51.58984375 74.02197266 C47.84486704 74.95821683 46.3757603 76.57731329 44.08984375 79.64697266 Z M30.08984375 205.64697266 C29.25634424 208.60357138 29.25634424 208.60357138 30.08984375 211.64697266 C32.77826244 215.09127111 34.25928657 216.49421193 38.60742188 217.29394531 C39.94492435 217.32666984 41.28333902 217.33093633 42.62109375 217.31103516 C43.69139832 217.3182106 43.69139832 217.3182106 44.7833252 217.32553101 C46.28607397 217.32892076 47.78889741 217.31978273 49.29150391 217.29882812 C51.5840385 217.27204049 53.87167909 217.29859796 56.1640625 217.33056641 C57.62891699 217.32726213 59.09376845 217.32085551 60.55859375 217.31103516 C61.23893677 217.32115631 61.91927979 217.33127747 62.62023926 217.34170532 C66.42436159 217.24863029 68.01718678 216.70521683 71.02148438 214.296875 C73.29834554 211.78526535 73.29834554 211.78526535 73.71484375 208.58447266 C73.33334542 205.5213324 73.33334542 205.5213324 71.02148438 203.49658203 C67.46031337 201.24979393 64.64044761 201.06714354 60.55859375 201.11572266 C59.48828918 201.1099823 59.48828918 201.1099823 58.3963623 201.10412598 C56.89362164 201.10141419 55.39083319 201.10872411 53.88818359 201.12548828 C51.59625388 201.14691274 49.30745796 201.12566627 47.015625 201.10009766 C45.55077438 201.10274107 44.08592569 201.10786633 42.62109375 201.11572266 C41.94075073 201.10762573 41.26040771 201.09952881 40.55944824 201.09118652 C35.83802209 201.18360141 33.3599135 202.24721175 30.08984375 205.64697266 Z " fill="#2A8CFF" transform="translate(203.91015625,178.35302734375)"/>
<path d="M0 0 C1.23506813 0.59218836 2.47092691 1.1827302 3.70751953 1.77172852 C6.29721177 3.00700288 8.88318264 4.24962455 11.46679688 5.49755859 C17.08097262 8.20296061 22.73519498 10.82197132 28.38739014 13.44671631 C31.52850362 14.90677774 34.66646661 16.37357814 37.8046875 17.83984375 C39.0673688 18.42955475 40.33006411 19.01923575 41.59277344 19.60888672 C42.21744507 19.90059753 42.8421167 20.19230835 43.48571777 20.49285889 C48.49073589 22.82979521 53.49643138 25.16528054 58.50201416 27.50100708 C61.62637712 28.95893113 64.75068581 30.41697146 67.875 31.875 C69.12499974 32.45833389 70.37499974 33.04166722 71.625 33.625 C84.125 39.45833333 96.625 45.29166667 109.125 51.125 C109.74368958 51.41371979 110.36237915 51.70243958 110.99981689 51.99990845 C112.25043348 52.58353359 113.50104383 53.16717211 114.75164795 53.75082397 C117.86716323 55.20480205 120.98278491 56.65855126 124.09863281 58.11181641 C129.83684493 60.78846466 135.57410727 63.46708029 141.30758667 66.15385437 C143.93554687 67.38518787 146.56408931 68.61527554 149.19268799 69.84524536 C150.47286908 70.44465673 151.75278004 71.04464541 153.03240967 71.64523315 C159.02795967 74.45879333 165.02525158 77.25498847 171.1171875 79.85546875 C171.95668945 80.21527832 172.79619141 80.57508789 173.66113281 80.94580078 C175.15248237 81.57814545 176.6488406 82.19889175 178.15136719 82.80419922 C182.41475318 84.60711833 184.85418979 86.48311496 187.375 90.375 C188.97372909 95.17118728 188.7258246 100.03831555 188.8125 105.0625 C188.88114258 106.65868164 188.88114258 106.65868164 188.95117188 108.28710938 C189.02778571 113.68005739 189.02272886 117.21820292 185.41015625 121.39453125 C181.22738133 126.13952078 181.22738133 126.13952078 181.375 137.375 C151.015 137.375 120.655 137.375 89.375 137.375 C89.375 134.405 89.375 131.435 89.375 128.375 C19.085 128.375 -51.205 128.375 -123.625 128.375 C-123.625 131.345 -123.625 134.315 -123.625 137.375 C-153.655 137.375 -183.685 137.375 -214.625 137.375 C-214.625 133.415 -214.625 129.455 -214.625 125.375 C-215.945 124.715 -217.265 124.055 -218.625 123.375 C-223.55251847 118.10209472 -223.59031748 110.61781523 -223.6640625 103.72265625 C-223.11730305 91.52471325 -223.11730305 91.52471325 -218.625 86.375 C-216.70581055 85.22949219 -216.70581055 85.22949219 -214.38671875 84.109375 C-213.49009521 83.67616943 -212.59347168 83.24296387 -211.66967773 82.79663086 C-206.44691933 80.35800347 -201.1978447 77.97934301 -195.94046021 75.61660767 C-182.61737427 69.62347294 -169.37958448 63.46334602 -156.1875 57.1875 C-142.40270615 50.63110334 -128.58278459 44.16457881 -114.71044922 37.79492188 C-109.32128013 35.3148295 -103.9422436 32.81295514 -98.5625 30.3125 C-96.23570806 29.23170414 -93.90888377 28.15097793 -91.58203125 27.0703125 C-90.97036102 26.78622528 -90.3586908 26.50213806 -89.72848511 26.20944214 C-84.3231271 23.6990268 -78.91757986 21.18901929 -73.51171875 18.6796875 C-72.63202423 18.27130646 -71.75232971 17.86292542 -70.84597778 17.44216919 C-66.36575955 15.36298533 -61.88431202 13.28651878 -57.40039062 11.21533203 C-55.66666007 10.4144023 -53.932936 9.61345853 -52.19921875 8.8125 C-51.36228485 8.42593231 -50.52535095 8.03936462 -49.66305542 7.64108276 C-44.89301975 5.43467703 -40.13791094 3.20062296 -35.39453125 0.9375 C-34.38181152 0.46014404 -33.3690918 -0.01721191 -32.32568359 -0.5090332 C-30.56624288 -1.33900793 -28.81198532 -2.18012747 -27.06494141 -3.03588867 C-16.49999401 -7.97559353 -10.00964476 -4.91526314 0 0 Z M-38.625 29.375 C-44.31356755 36.43714849 -46.57827061 44.37188869 -45.625 53.375 C-44.07683487 61.0117473 -40.53509304 67.28122463 -34.3984375 72.13671875 C-27.29194905 76.79541674 -19.58646389 79.31566995 -11.0625 77.875 C-2.13701498 75.32029946 4.07769199 70.63560909 9.03515625 62.8203125 C12.75220926 56.03641983 13.53604216 49.05874963 11.6875 41.6015625 C8.79902926 32.81579734 4.47297504 27.02773743 -3.546875 22.375 C-16.15570666 16.30759229 -28.97534444 19.82069677 -38.625 29.375 Z " fill="#2A8CFF" transform="translate(272.625,37.625)"/>
<path d="M0 0 C30.36 0 60.72 0 92 0 C92 3.3 92 6.6 92 10 C161.96 10 231.92 10 304 10 C304 7.03 304 4.06 304 1 C312.79599351 -0.08761855 321.52715193 -0.14627346 330.375 -0.1328125 C331.95100927 -0.13348778 333.52701843 -0.13445966 335.10302734 -0.13571167 C338.3909607 -0.13717811 341.67886672 -0.13506818 344.96679688 -0.13037109 C349.15585507 -0.12467446 353.34484917 -0.12795914 357.53390503 -0.13394356 C360.78377759 -0.13757774 364.03363526 -0.13639752 367.2835083 -0.13381577 C368.82708748 -0.13315438 370.37066807 -0.13394695 371.91424561 -0.13629532 C380.00320482 -0.14590462 387.96205082 0.00611311 396 1 C396 3.97 396 6.94 396 10 C398.09601563 9.94779297 398.09601563 9.94779297 400.234375 9.89453125 C402.07290464 9.86639049 403.91144729 9.83909064 405.75 9.8125 C407.13058594 9.77479492 407.13058594 9.77479492 408.5390625 9.73632812 C409.42851562 9.72666016 410.31796875 9.71699219 411.234375 9.70703125 C412.05131836 9.6913208 412.86826172 9.67561035 413.70996094 9.65942383 C416.57634189 10.08571396 417.90840308 11.02154841 420 13 C421.23054555 16.69163665 421.20070043 20.14459769 421.23828125 23.9921875 C421.246353 24.77514191 421.25442474 25.55809631 421.26274109 26.36477661 C421.27656166 28.02066852 421.28729287 29.67658867 421.29516602 31.33251953 C421.31239057 33.85894892 421.3562938 36.38407304 421.40039062 38.91015625 C421.41051727 40.52082374 421.41903346 42.13150231 421.42578125 43.7421875 C421.45204338 44.8705452 421.45204338 44.8705452 421.47883606 46.021698 C421.46473158 49.44799521 421.16324935 51.71960058 419.42821598 54.69971883 C416.26809655 57.69334183 413.81894178 57.69934002 409.67857361 57.6292057 C408.93564894 57.63647291 408.19272428 57.64374011 407.42728674 57.65122753 C404.92359062 57.66955833 402.42141099 57.652086 399.91772461 57.63491821 C398.1104526 57.64067624 396.30318643 57.64861521 394.49593258 57.65855443 C389.51864476 57.6794948 384.54183411 57.66908001 379.5645442 57.65362334 C374.2011279 57.6423431 368.83779555 57.65975598 363.47439575 57.67352295 C352.96315665 57.6957955 342.45209572 57.69093628 331.94084954 57.67645974 C323.40072682 57.66518329 314.86065415 57.66362969 306.32052612 57.66907883 C304.49965907 57.67022807 304.49965907 57.67022807 302.64200681 57.67140054 C300.17622986 57.67299911 297.71045292 57.67462018 295.24467599 57.6762635 C272.1046964 57.69053277 248.96481572 57.67410978 225.82485235 57.64726166 C205.95512545 57.62492185 186.08554458 57.62880165 166.21582031 57.65185547 C143.16055806 57.67859265 120.10538259 57.68915936 97.050107 57.67379415 C94.59322931 57.67220135 92.1363516 57.6706295 89.67947388 57.66907883 C87.86606763 57.66792176 87.86606763 57.66792176 86.01602691 57.66674132 C77.48282128 57.66241807 68.94967053 57.66972431 60.41647339 57.68147659 C50.02210678 57.69547701 39.62792904 57.69175345 29.23358417 57.66507287 C23.92675677 57.6519016 18.62024465 57.64683862 13.31341934 57.66331863 C8.46010564 57.67816273 3.60740093 57.67012199 -1.24585712 57.64343087 C-3.00622161 57.63782229 -4.76663703 57.64073921 -6.52696908 57.65280981 C-8.91157917 57.66791316 -11.29407582 57.65253059 -13.67857361 57.6292057 C-14.36962547 57.64091153 -15.06067733 57.65261737 -15.77267015 57.66467792 C-19.37526927 57.59375027 -20.77540103 57.21312316 -23.42623234 54.69773519 C-25.53260024 51.08702253 -25.55730723 47.87722863 -25.49609375 43.8125 C-25.49754898 43.03237549 -25.49900421 42.25225098 -25.50050354 41.44848633 C-25.49884877 39.80448662 -25.48733469 38.16047074 -25.46655273 36.51660156 C-25.43758994 34.00779056 -25.44595301 31.501094 -25.45898438 28.9921875 C-25.45274638 27.39061479 -25.44435496 25.78904871 -25.43359375 24.1875 C-25.43652939 23.44153564 -25.43946503 22.69557129 -25.44248962 21.92700195 C-25.36203792 17.4602876 -24.76555101 14.54937028 -22 11 C-19.59940183 9.79970092 -18.10639351 9.88540257 -15.4296875 9.90234375 C-14.53378906 9.90556641 -13.63789062 9.90878906 -12.71484375 9.91210938 C-11.77769531 9.92048828 -10.84054688 9.92886719 -9.875 9.9375 C-8.45767578 9.94426758 -8.45767578 9.94426758 -7.01171875 9.95117188 C-4.6744523 9.96297625 -2.33721831 9.98091201 0 10 C0 6.7 0 3.4 0 0 Z " fill="#2A8CFF" transform="translate(58,423)"/>
<path d="M0 0 C20.13 0 40.26 0 61 0 C61 71.94 61 143.88 61 218 C40.67450678 218.56459703 20.31708616 218.81268345 0 218 C0 146.06 0 74.12 0 0 Z " fill="#4768FF" transform="translate(377,190)"/>
<path d="M0 0 C20.13 0 40.26 0 61 0 C61 71.94 61 143.88 61 218 C40.87 218 20.74 218 0 218 C0 146.06 0 74.12 0 0 Z " fill="#0DAFFF" transform="translate(72,190)"/>
<path d="M0 0 C3.30417555 1.7984753 5.47939286 4.10076949 7.375 7.375 C8.48001749 12.01607346 8.46885751 15.67157038 6.875 20.1875 C4.0570371 24.41444435 0.92013319 26.37386961 -3.875 27.9375 C-8.09194444 28.02183889 -11.32322021 27.05397933 -15 25 C-18.50006922 21.41018542 -19.87062128 18.714268 -20.25 13.6875 C-19.88898229 8.3624888 -18.41468242 5.30858123 -14.5 1.6875 C-9.66855908 -1.57372262 -5.48978943 -1.36776324 0 0 Z " fill="#2A8CFF" transform="translate(262,73)"/>
</svg>
